**ABCDEFGHIJKLMNOPQRSTUVWXYZabcdefghijklmnopqrstuvwxyz**************************
**PARASOLID !"#$%&'()*+,-./:;<=>?@[\]^_`{|}~0123456789**************************
**PART1;
MC=AMD64;
MC_MODEL=Intel64 Family 6 Model 158 Stepping 9, GenuineIntel;
MC_ID=unknown;
OS=Windows_NT;
OS_RELEASE=unknown;
FRU=Parasolid Version 29.0, build 195, 12- 2-2016;
APPL=SOLIDWORKS 2017-2017033;
SITE=;
USER=unknown;
FORMAT=text;
GUISE=transmit;
KEY=Light connector GIANT Triple X;
FILE=Light connector GIANT Triple X.x_t;
DATE=Mon Apr 23 19:18:56 2018;
**PART2;
SCH=SCH_2900195_28101;
USFLD_SIZE=0;
**PART3;
**END_OF_HEADER*****************************************************************
T51 : TRANSMIT FILE created by modeller version 290019523 SCH_2900195_28101_1300
6203 0 12 33 CCCCCCI4 mesh1006 0 I8 polyline1008 0 CCCCCCCDI5 owner1040 0 CCCCCC
I13 boundary_mesh1006 0 I17 boundary_polyline1008 0 CCCA16 index_map_offset0 0 1
 dA9 index_map82 0 A17 node_id_index_map82 0 A20 schema_embedding_map82 0 A5 chi
ld12 0 A14 lowest_node_id0 0 1 dZ1 3287 0 2 0 0 0 0 0 0 1e3 1e-8 0 3 0 1 0 1 1 4
 5 6 7 0 0 8 9 10 0 0 0 0 0 0 70 11 CI9 list_type0 0 1 uI10 notransmit0 0 1 lCCC
DCCDI12 finger_index0 0 1 dI12 finger_block1012 0 CZ2 0 4 T1 0 0 2 20 1 11 11 13
 255 4 94 0 1 0 12 0 0 13 0 54 255 5 1072 0 14 15 0 0 +-.00565527343750005 .0018
 .009875 0 1 0 .00584472656249995 5e-4 0 0 1 31 255 6 1084 0 16 17 0 0 +-.011039
4028012929 .0018 .00760080133138373 .3891026627674315 0 -.921194397414191 -.9211
94397414191 0 -.3891026627674315 5e-4 29 255 7 1600 0 10 18 0 .0015 .02283944224
23906 .00836390051904031 19 8 CCCCCCCA5 owner12 0 Z8 28 0 1 13 0 19 V0 16 255 9
 958 0 ?20 0 21 22 0 0 1 18 255 10 1598 0 23 0 24 7 ?1 17 255 23 0 25 26 27 10 2
8 29 0 30 -18 24 1580 0 31 10 32 18 ?1 17 31 0 33 34 30 24 35 36 0 37 +18 32 156
2 0 38 24 39 40 ?1 29 18 1582 0 24 40 7 .0015 .0046 -.00943484060308202 29 40 15
64 0 32 41 18 .0015 .0046 .010075 29 41 1544 0 39 42 40 .0015 .0103 .010075 18 3
9 1542 0 43 32 44 41 ?1 29 42 1526 0 44 45 41 .0015 .01379629212132594 .01154819
01485958 18 44 1524 0 46 39 47 42 ?1 29 45 1511 0 47 48 42 -.0015 .0152748912019
205 .01149620362919354 18 47 1509 0 49 44 50 45 ?1 29 48 1502 0 50 51 45 .0015 .
0215990091421623 .00963480206644757 18 50 1500 0 52 47 53 48 ?1 29 51 1183 0 53
 54 48 .0035 .0023 .012375 18 53 1181 0 55 50 56 51 ?1 29 54 1180 0 56 57 51 -.0
035 .0023 .012375 18 56 1178 0 58 53 59 54 ?1 29 57 1174 0 59 60 54 .0035 .0023
 -.012375 18 59 1172 0 61 56 62 57 ?1 29 60 952 0 62 63 57 .0115 .0018 .00740625
 18 62 950 0 20 59 64 60 ?1 29 63 944 0 64 65 60 .012 .0018 .009875 18 64 942 0
 66 62 67 63 ?1 29 65 936 0 67 68 63 .009 .0018 .012875 18 67 934 0 69 64 70 65
 ?1 29 68 928 0 70 71 65 -.009 .0018 .012875 18 70 926 0 72 67 73 68 ?1 29 71 92
0 0 73 74 68 -.012 .0018 .009875 18 73 918 0 75 70 76 71 ?1 29 74 912 0 76 77 71
 -.0115 .0018 .00740625 18 76 910 0 78 73 79 74 ?1 29 77 904 0 79 80 74 -.0115 .
0018 -.00740625 18 79 902 0 81 76 82 77 ?1 29 80 896 0 82 83 77 -.012 .0018 -.00
9875 18 82 894 0 84 79 85 80 ?1 29 83 888 0 85 86 80 -.009 .0018 -.012875 18 85
 886 0 87 82 88 83 ?1 29 86 880 0 88 89 83 .009 .0018 -.012875 18 88 878 0 90 85
 91 86 ?1 29 89 871 0 91 92 86 .0115 .0023 -.009875 18 91 869 0 93 88 94 89 ?1 2
9 92 867 0 94 95 89 .009 .0023 -.012375 18 94 865 0 96 91 97 92 ?1 29 95 863 0 9
7 98 92 -.009 .0023 -.012375 18 97 861 0 99 94 100 95 ?1 29 98 859 0 100 101 95
 -.0115 .0023 -.009875 18 100 857 0 102 97 103 98 ?1 29 101 855 0 103 104 98 -.0
110394028012929 .0023 -.00760080133138373 18 103 853 0 105 100 106 101 ?1 29 104
 851 0 106 107 101 -.0110394028012929 .0023 .00760080133138373 18 106 849 0 108
 103 109 104 ?1 29 107 847 0 109 110 104 -.0115 .0023 .009875 18 109 845 0 111 1
06 112 107 ?1 29 110 843 0 112 113 107 -.009 .0023 .012375 18 112 841 0 114 109
 115 110 ?1 29 113 839 0 115 116 110 .009 .0023 .012375 18 115 837 0 117 112 118
 113 ?1 29 116 835 0 118 119 113 .0115 .0023 .009875 18 118 833 0 120 115 121 11
6 ?1 29 119 831 0 121 122 116 .0110394028012929 .0023 -.00760080133138373 18 121
 829 0 123 118 124 119 ?1 29 122 828 0 124 125 119 .0110394028012929 .0023 .0076
0080133138373 18 124 826 0 126 121 127 122 ?1 29 125 820 0 127 128 122 .0115 .00
18 -.00740625 18 127 818 0 129 124 130 125 ?1 29 128 817 0 130 131 125 .012 .001
8 -.009875 18 130 815 0 132 127 133 128 ?1 29 131 175 0 133 134 128 .009 0 .0128
75 18 133 173 0 135 130 136 131 ?1 29 134 172 0 136 137 131 -.009 0 .012875 18 1
36 170 0 138 133 139 134 ?1 29 137 141 0 139 140 134 -.009 0 -.012875 18 139 139
 0 141 136 142 137 ?1 29 140 138 0 142 143 137 .009 0 -.012875 18 142 136 0 144
 139 145 140 ?1 29 143 586 0 146 147 140 .0115 0 .00740625 18 146 518 0 148 149
 150 143 ?1 29 147 587 0 149 151 143 .0115 0 -.00740625 18 149 519 0 152 153 146
 147 ?1 29 151 588 0 150 154 147 .012 0 .009875 18 150 521 0 155 146 156 151 ?1
 29 154 589 0 156 157 151 .012 0 -.009875 18 156 520 0 158 150 159 154 ?1 29 157
 594 0 160 161 154 -.0115 0 -.00740625 18 160 465 0 162 145 163 157 ?1 29 161 59
5 0 145 164 157 -.0115 0 .00740625 18 145 466 0 165 142 160 161 ?1 29 164 596 0
 163 166 161 -.012 0 -.009875 18 163 468 0 167 160 153 164 ?1 29 166 597 0 153 1
68 164 -.012 0 .009875 18 153 467 0 169 163 149 166 ?1 29 168 1470 0 170 171 166
 -.0035 .0023 -.012375 18 170 1305 0 172 173 174 168 ?1 29 171 1472 0 174 175 16
8 -.0035 .0103 .012375 18 174 1312 0 176 170 177 171 ?1 29 175 1473 0 177 178 17
1 -.0035 .0128461558928908 .01451147847064452 18 177 1330 0 179 174 180 175 ?1 2
9 178 1474 0 180 181 175 -.0035 .0132050953343352 .0165471251992518 18 180 1331
 0 182 177 183 178 ?1 29 181 1475 0 183 184 178 -.0035 .0265 .0142028748007482 1
8 183 1308 0 185 180 186 181 ?1 29 184 1476 0 186 187 181 -.0035 .02608650843265
74 .01185784759231272 18 186 1307 0 188 183 189 184 ?1 29 187 1477 0 189 190 184
 -.0035 .0215990091421623 .00963480206644757 18 189 1314 0 191 186 192 187 ?1 29
 190 1478 0 192 193 187 -.0035 .0152748912019205 .01149620362919354 18 192 1324
 0 194 189 195 190 ?1 29 193 1479 0 195 196 190 -.0035 .01379629212132594 .01154
81901485958 18 195 1321 0 197 192 198 193 ?1 29 196 1480 0 198 199 193 -.0035 .0
103 .010075 18 198 1320 0 200 195 201 196 ?1 29 199 1481 0 201 202 196 -.0035 .0
046 .010075 18 201 1318 0 203 198 204 199 ?1 29 202 1482 0 204 205 199 -.0035 .0
046 -.00943484060308202 18 204 1317 0 206 201 207 202 ?1 29 205 1483 0 207 208 2
02 -.0035 .0228394422423906 .00836390051904031 18 207 1315 0 209 204 210 205 ?1
 29 208 1486 0 159 211 205 .0035 .0103 .012375 18 159 1328 0 212 156 213 208 ?1
 29 211 1487 0 213 214 208 .0035 .0128461558928908 .01451147847064452 18 213 131
0 0 215 159 216 211 ?1 29 214 1488 0 216 217 211 .0035 .0132050953343352 .016547
1251992518 18 216 1309 0 218 213 219 214 ?1 29 217 1489 0 219 220 214 .0035 .026
5 .0142028748007482 18 219 1306 0 221 216 222 217 ?1 29 220 1490 0 222 223 217 .
0035 .0260865084326574 .01185784759231272 18 222 1304 0 224 219 225 220 ?1 29 22
3 1491 0 225 226 220 .0035 .0215990091421623 .00963480206644757 18 225 1323 0 22
7 222 228 223 ?1 29 226 1492 0 228 229 223 .0035 .0152748912019205 .011496203629
19354 18 228 1327 0 230 225 231 226 ?1 29 229 1493 0 231 232 226 .0035 .01379629
212132594 .0115481901485958 18 231 1319 0 233 228 234 229 ?1 29 232 1494 0 234 2
35 229 .0035 .0103 .010075 18 234 1326 0 236 231 237 232 ?1 29 235 1495 0 237 23
8 232 .0035 .0046 .010075 18 237 1316 0 239 234 240 235 ?1 29 238 1496 0 240 241
 235 .0035 .0046 -.00943484060308202 18 240 1325 0 242 237 173 238 ?1 29 241 149
7 0 173 243 238 .0035 .0228394422423906 .00836390051904031 18 173 1313 0 26 240
 170 241 ?1 29 243 1725 0 244 245 241 -.0015 .0046 -.00943484060308202 18 244 16
53 0 246 210 247 243 ?1 29 245 1726 0 247 248 243 -.0015 .0046 .010075 18 247 16
61 0 249 244 250 245 ?1 29 248 1727 0 250 251 245 -.0015 .0103 .010075 18 250 16
60 0 252 247 253 248 ?1 29 251 1728 0 253 254 248 -.0015 .01379629212132594 .011
5481901485958 18 253 1658 0 255 250 256 251 ?1 29 254 1730 0 256 257 251 -.0015
 .0215990091421623 .00963480206644757 18 256 1654 0 258 253 259 254 ?1 29 257 17
31 0 259 260 254 -.0015 .0228394422423906 .00836390051904031 18 259 1655 0 261 2
56 0 257 ?1 29 260 1736 0 210 0 257 .0015 .0152748912019205 .01149620362919354 1
8 210 1663 0 262 207 244 260 ?1 17 262 0 263 52 264 210 265 266 0 267 +15 255 26
3 1519 0 52 268 0 17 52 0 263 227 262 50 269 270 0 27 -17 264 0 263 262 227 228
 271 272 0 0 +17 265 0 273 274 267 228 262 266 0 264 -16 266 1253 0 ?262 275 276
 277 276 276 1 17 267 0 273 265 278 210 279 280 0 269 +15 273 1381 0 278 281 0 1
7 278 0 273 267 274 44 233 282 0 279 +17 279 0 283 284 269 44 267 280 0 0 -16 28
0 1637 0 ?267 285 270 286 0 0 1 17 269 0 283 279 28 210 52 270 0 0 +15 283 1689
 0 35 287 0 17 28 0 283 269 35 50 23 29 0 0 +16 270 1646 0 ?269 280 29 288 0 0 1
 16 29 1645 0 ?28 270 36 289 0 0 1 31 288 1722 0 270 289 286 0 -.0015 .019852547
6671676 .015375 1 0 0 0 0 -1 .006 31 289 1723 0 29 290 288 0 +.0015 .02189008605
46614 .00867810241085549 1 0 0 0 0 -1 .001 31 286 1721 0 280 288 291 0 -.0015 .0
1451194845771264 .01084973756739248 1 0 0 0 0 -1 .001 31 291 1720 0 285 286 292
 0 -.0015 .0103 .01496043445165104 1 0 0 0 0 -1 .00488543445165104 16 285 1647 0
 ?284 293 280 291 0 0 1 30 255 292 1719 0 293 291 294 0 +.0015 0 .010075 0 1 0 1
6 293 1641 0 ?43 295 285 292 0 0 1 30 294 1718 0 295 292 296 0 +.0015 .0046 2045
052071884365e-34 0 444576537366166e-31 -1 16 295 1648 0 ?297 298 293 294 0 0 1 3
1 296 1717 0 299 294 300 0 --.0015 -.00345772415770886 .0170672929223207 1 0 0 0
 0 -1 .0277 16 299 1649 0 ?246 301 302 296 0 0 1 31 300 1716 0 301 296 303 0 +-.
0015 .0218900860546614 .00867810241085549 1 0 0 0 0 -1 .001 16 301 1633 0 ?304 3
05 299 300 0 0 1 31 303 1715 0 305 300 306 0 --.0015 .0198525476671676 .015375 1
 0 0 0 0 -1 .006 16 305 1635 0 ?307 308 301 303 0 0 1 31 306 1714 0 308 303 309
 0 --.0015 .01451194845771264 .01084973756739248 1 0 0 0 0 -1 .001 16 308 1651 0
 ?49 310 305 306 0 0 1 31 309 1713 0 310 306 311 0 --.0015 .0103 .01496043445165
104 1 0 0 0 0 -1 .00488543445165104 16 310 1639 0 ?312 313 308 309 0 0 1 30 311
 1712 0 313 309 314 0 +-.0015 0 .010075 0 1 0 16 313 1650 0 ?252 315 310 311 0 0
 1 30 314 1711 0 315 311 316 0 +-.0015 .0046 2045052071884365e-34 0 444576537366
166e-31 -1 16 315 1643 0 ?317 36 313 314 0 0 1 31 316 1469 0 318 314 319 0 +.003
5 .0218900860546614 .00867810241085549 1 0 0 0 0 -1 .001 16 318 1220 0 ?320 321
 322 316 0 0 1 31 319 1468 0 321 316 323 0 -.0035 -.003457724157708865 .01706729
29223207 1 0 0 0 0 -1 .0277 16 321 1257 0 ?242 324 318 319 0 0 1 30 323 1467 0 3
24 319 325 0 +.0035 .0046 2045052071884365e-34 0 444576537366166e-31 -1 16 324 1
229 0 ?326 327 321 323 0 0 1 30 325 1466 0 327 323 328 0 +.0035 0 .010075 0 1 0
 16 327 1261 0 ?236 329 324 325 0 0 1 31 328 1465 0 329 325 330 0 -.0035 .0103 .
01496043445165104 1 0 0 0 0 -1 .00488543445165104 16 329 1237 0 ?331 332 327 328
 0 0 1 31 330 1464 0 332 328 333 0 -.0035 .01451194845771264 .01084973756739248
 1 0 0 0 0 -1 .001 16 332 1264 0 ?230 272 329 330 0 0 1 31 333 1463 0 272 330 33
4 0 -.0035 .0198525476671676 .015375 1 0 0 0 0 -1 .006 16 272 1250 0 ?264 335 33
2 333 0 0 1 31 334 1462 0 335 333 336 0 -.0035 -.00345772415770886 .017067292922
3207 1 0 0 0 0 -1 .03 16 335 1196 0 ?337 338 272 334 0 0 1 30 336 1461 0 338 334
 339 0 +.0035 .0232720925879191 -.004103497820795615 0 -.1736481776669305 -.9848
07753012208 16 338 1200 0 ?340 341 335 336 0 0 1 31 339 1460 0 341 336 342 0 +.0
035 .0198525476671676 .015375 1 0 0 0 0 -1 .00675 16 341 1267 0 ?343 344 338 339
 0 0 1 30 342 1459 0 344 339 345 0 +.0035 .00997718792225422 -.00175924742229207
 0 -.1736481776669325 -.984807753012208 16 344 1270 0 ?346 347 341 342 0 0 1 31
 345 1458 0 347 342 348 0 -.0035 .0103 .01496043445165104 1 0 0 0 0 -1 .00258543
445165104 16 347 1273 0 ?212 349 344 345 0 0 1 30 348 1457 0 349 345 350 0 +.003
5 0 .012375 0 1 0 16 349 1216 0 ?351 352 347 348 0 0 1 30 350 1456 0 352 348 353
 0 +.0035 .0023 0 0 0 -1 16 352 1276 0 ?354 355 349 350 0 0 1 31 353 1455 0 355
 350 356 0 +.0035 .0198525476671676 .015375 1 0 0 0 0 -1 .003 16 355 1254 0 ?357
 358 352 353 0 0 1 31 356 1454 0 298 353 359 0 +-.0035 .0218900860546614 .008678
10241085549 1 0 0 0 0 -1 .001 16 298 1279 0 ?360 361 295 356 0 0 1 31 359 1453 0
 361 356 362 0 --.0035 -.003457724157708865 .0170672929223207 1 0 0 0 0 -1 .0277
 16 361 1224 0 ?363 364 298 359 0 0 1 30 362 1452 0 364 359 365 0 +-.0035 .0046
 2045052071884365e-34 0 444576537366166e-31 -1 16 364 1289 0 ?366 367 361 362 0
 0 1 30 365 1451 0 367 362 368 0 +-.0035 0 .010075 0 1 0 16 367 1233 0 ?369 370
 364 365 0 0 1 31 368 1450 0 370 365 371 0 --.0035 .0103 .01496043445165104 1 0
 0 0 0 -1 .00488543445165104 16 370 1285 0 ?372 373 367 368 0 0 1 31 371 1449 0
 373 368 374 0 --.0035 .01451194845771264 .01084973756739248 1 0 0 0 0 -1 .001 1
6 373 1242 0 ?375 376 370 371 0 0 1 31 374 1448 0 376 371 377 0 --.0035 .0198525
476671676 .015375 1 0 0 0 0 -1 .006 16 376 1282 0 ?378 379 373 374 0 0 1 31 377
 1447 0 379 374 380 0 --.0035 -.00345772415770886 .0170672929223207 1 0 0 0 0 -1
 .03 16 379 1292 0 ?381 382 376 377 0 0 1 30 380 1446 0 382 377 383 0 +-.0035 .0
232720925879191 -.004103497820795615 0 -.1736481776669305 -.984807753012208 16 3
82 1298 0 ?384 385 379 380 0 0 1 31 383 1445 0 385 380 386 0 +-.0035 .0198525476
671676 .015375 1 0 0 0 0 -1 .00675 16 385 1204 0 ?387 388 382 383 0 0 1 30 386 1
444 0 388 383 389 0 +-.0035 .00997718792225422 -.00175924742229207 0 -.173648177
6669325 -.984807753012208 16 388 1208 0 ?390 391 385 386 0 0 1 31 389 1443 0 391
 386 392 0 --.0035 .0103 .01496043445165104 1 0 0 0 0 -1 .00258543445165104 16 3
91 1212 0 ?393 394 388 389 0 0 1 30 392 1442 0 394 389 395 0 +-.0035 0 .012375 0
 1 0 16 394 1295 0 ?396 397 391 392 0 0 1 30 395 1441 0 397 392 398 0 +-.0035 .0
023 0 0 0 -1 16 397 1246 0 ?399 322 394 395 0 0 1 31 398 1440 0 322 395 400 0 +-
.0035 .0198525476671676 .015375 1 0 0 0 0 -1 .003 16 322 1301 0 ?401 318 397 398
 0 0 1 30 400 1439 0 402 398 403 0 +.0035 .0023 -.012375 -1 0 0 16 402 1199 0 ?4
04 405 406 400 0 0 1 30 403 1438 0 405 400 407 0 +.0035 .0023 .012375 -1 0 0 16
 405 1249 0 ?58 408 402 403 0 0 1 30 407 1437 0 408 403 409 0 +.0035 .0103 .0123
75 -1 0 0 16 408 1219 0 ?176 410 405 407 0 0 1 30 409 1436 0 410 407 411 0 +.003
5 .0128461558928908 .01451147847064452 -1 0 0 16 410 1215 0 ?412 413 408 409 0 0
 1 30 411 1435 0 413 409 414 0 +.0035 .0132050953343352 .0165471251992518 -1 0 0
 16 413 1211 0 ?415 416 410 411 0 0 1 30 414 1434 0 416 411 417 0 +.0035 .0265 .
0142028748007482 -1 0 0 16 416 1207 0 ?185 418 413 414 0 0 1 30 417 1433 0 418 4
14 419 0 +.0035 .0260865084326574 .01185784759231272 -1 0 0 16 418 1203 0 ?188 4
20 416 417 0 0 1 30 419 1432 0 421 417 277 0 +.0035 .0215990091421623 .009634802
06644757 -1 0 0 16 421 1223 0 ?27 276 358 419 358 358 1 30 277 1431 0 266 419 42
2 0 +.0035 .0152748912019205 .01149620362919354 -1 0 0 30 422 1430 0 282 277 423
 0 +.0035 .01379629212132594 .0115481901485958 -1 0 0 16 282 1245 0 ?278 424 275
 422 275 275 1 30 423 1429 0 425 422 426 0 +.0035 .0103 .010075 -1 0 0 16 425 12
41 0 ?427 428 424 423 424 424 1 30 426 1428 0 429 423 430 0 +.0035 .0046 .010075
 -1 0 0 16 429 1236 0 ?431 432 428 426 428 428 1 30 430 1427 0 433 426 434 0 +.0
035 .0046 -.00943484060308202 -1 0 0 16 433 1232 0 ?37 435 432 430 432 432 1 30
 434 1426 0 406 430 436 0 +.0035 .0228394422423906 .00836390051904031 -1 0 0 16
 406 1228 0 ?30 402 435 434 435 435 1 31 436 778 0 437 434 438 0 +-.007 0 .008 0
 1 0 0 0 1 .00225 16 437 717 0 ?439 440 441 436 0 0 1 31 438 776 0 441 436 442 0
 --.007 0 -.008 0 1 0 0 0 1 .00225 16 441 702 0 ?443 437 444 438 0 0 1 31 442 77
4 0 444 438 445 0 +.007 0 -.008 0 1 0 0 0 1 .00225 16 444 681 0 ?446 441 16 442
 0 0 1 31 445 772 0 440 442 447 0 -.007 0 .008 0 1 0 0 0 1 .00225 16 440 738 0 ?
448 449 437 445 0 0 1 31 447 585 0 450 445 451 0 +-.00565527343750005 0 .009875
 0 1 0 0 0 1 .00634472656249995 16 450 459 0 ?169 452 453 447 0 0 1 31 451 584 0
 452 447 454 0 --.0290341796875 0 0 0 1 0 0 0 1 .0190341796875 16 452 458 0 ?165
 455 450 451 0 0 1 31 454 583 0 455 451 456 0 +-.00565527343750005 0 -.009875 0
 1 0 0 0 1 .00634472656249995 16 455 457 0 ?162 457 452 454 0 0 1 30 456 578 0 4
53 454 458 0 +-.0115 -.0198510075311053 -.00740625 0 1 0 16 453 442 0 ?459 450 4
60 456 0 0 1 30 458 577 0 460 456 461 0 +-.0115 -.0198510075311053 .00740625 0 1
 0 16 460 443 0 ?462 453 463 458 0 0 1 31 461 573 0 464 458 465 0 +.005655273437
50005 0 -.009875 0 1 0 0 0 1 .00634472656249995 16 464 512 0 ?158 466 467 461 0
 0 1 31 465 572 0 466 461 468 0 -.0290341796875 0 0 0 1 0 0 0 1 .0190341796875 1
6 466 511 0 ?152 463 464 465 0 0 1 31 468 571 0 463 465 469 0 +.0056552734375000
5 0 .009875 0 1 0 0 0 1 .00634472656249995 16 463 510 0 ?148 460 466 468 0 0 1 3
0 469 566 0 467 468 470 0 +.0115 -.0198510075311053 .00740625 0 1 0 16 467 495 0
 ?471 464 449 469 0 0 1 30 470 565 0 449 469 472 0 +.0115 -.0198510075311053 -.0
0740625 0 1 0 16 449 496 0 ?473 467 440 470 0 0 1 30 472 68 0 457 470 474 0 +.01
2 0 .012875 1 0 -216840434497101e-30 16 457 171 0 ?475 476 455 472 0 0 1 30 474
 66 0 476 472 477 0 +.012 0 -.012875 -1 0 216840434497101e-30 16 476 137 0 ?478
 479 457 474 0 0 1 30 477 150 0 479 474 480 0 --.009 .0023 -.012875 0 -1 0 16 47
9 148 0 ?481 482 476 477 0 0 1 30 480 155 0 482 477 483 0 +.009 .0023 -.012875 0
 -1 0 16 482 879 0 ?144 484 479 480 0 0 1 31 483 178 0 484 480 485 0 --.009 0 -.
009875 0 1 0 0 0 1 .003 16 484 176 0 ?141 486 482 483 0 0 1 31 485 183 0 486 483
 487 0 --.009 0 .009875 0 1 0 0 0 1 .003 16 486 181 0 ?488 489 484 485 0 0 1 31
 487 188 0 489 485 490 0 -.009 0 .009875 0 1 0 0 0 1 .003 16 489 186 0 ?135 491
 486 487 0 0 1 31 490 193 0 491 487 492 0 -.009 0 -.009875 0 1 0 0 0 1 .003 16 4
91 191 0 ?493 494 489 490 0 0 1 30 492 204 0 494 490 495 0 +.012 .0023 .009875 0
 -1 0 16 494 943 0 ?155 496 491 492 0 0 1 30 495 209 0 496 492 497 0 -.012 .0023
 -.009875 0 -1 0 16 496 207 0 ?498 499 494 495 0 0 1 30 497 246 0 499 495 500 0
 +-.009 .0023 .012875 0 -1 0 16 499 927 0 ?138 501 496 497 0 0 1 30 500 251 0 50
1 497 502 0 -.009 .0023 .012875 0 -1 0 16 501 249 0 ?503 504 499 500 0 0 1 30 50
2 256 0 504 500 505 0 +-.012 .0023 -.009875 0 -1 0 16 504 895 0 ?167 506 501 502
 0 0 1 30 505 261 0 506 502 507 0 --.012 .0023 .009875 0 -1 0 16 506 259 0 ?508
 509 504 505 0 0 1 31 507 823 0 509 505 510 0 -.00565527343750005 .0018 -.009875
 0 1 0 0 0 1 .00634472656249995 16 509 821 0 ?511 512 506 507 0 0 1 31 510 832 0
 512 507 513 0 -.0290341796875 .0023 0 0 1 0 0 0 1 .0195341796875 16 512 830 0 ?
123 514 509 510 0 0 1 31 513 836 0 514 510 515 0 +.00565527343750005 .0023 .0098
75 0 1 0 0 0 1 .00584472656249995 16 514 834 0 ?126 516 512 513 0 0 1 31 515 840
 0 516 513 517 0 +.009 .0023 .009875 0 1 0 0 0 1 .0025 16 516 838 0 ?120 518 514
 515 0 0 1 30 517 844 0 519 515 520 0 +.009 .0023 .012375 1 0 -216840434497101e-
30 16 519 842 0 ?521 522 518 517 518 518 1 31 520 848 0 522 517 523 0 +-.009 .00
23 .009875 0 1 0 0 0 1 .0025 16 522 846 0 ?114 524 519 520 0 0 1 31 523 852 0 52
4 520 525 0 +-.00565527343750005 .0023 .009875 0 1 0 0 0 1 .00584472656249995 16
 524 850 0 ?111 526 522 523 0 0 1 31 525 856 0 526 523 527 0 --.0290341796875 .0
023 0 0 1 0 0 0 1 .0195341796875 16 526 854 0 ?108 528 524 525 0 0 1 31 527 860
 0 528 525 529 0 +-.00565527343750005 .0023 -.009875 0 1 0 0 0 1 .00584472656249
995 16 528 858 0 ?105 530 526 527 0 0 1 31 529 864 0 530 527 531 0 +-.009 .0023
 -.009875 0 1 0 0 0 1 .0025 16 530 862 0 ?102 532 528 529 0 0 1 30 531 868 0 533
 529 534 0 +-.009 .0023 -.012375 -1 0 216840434497101e-30 16 533 866 0 ?535 536
 532 531 532 532 1 31 534 872 0 536 531 537 0 +.009 .0023 -.009875 0 1 0 0 0 1 .
0025 16 536 870 0 ?96 538 533 534 0 0 1 31 537 875 0 538 534 539 0 +.00565527343
750005 .0023 -.009875 0 1 0 0 0 1 .00584472656249995 16 538 873 0 ?540 541 536 5
37 0 0 1 31 539 883 0 541 537 542 0 -.009 .0018 -.009875 0 1 0 0 0 1 .003 16 541
 881 0 ?132 543 538 539 0 0 1 30 542 891 0 543 539 544 0 -.009 .0018 -.012875 -1
 0 216840434497101e-30 16 543 889 0 ?90 545 541 542 0 0 1 31 544 899 0 545 542 5
46 0 --.009 .0018 -.009875 0 1 0 0 0 1 .003 16 545 897 0 ?87 547 543 544 0 0 1 3
1 546 907 0 547 544 548 0 --.00565527343750005 .0018 -.009875 0 1 0 0 0 1 .00634
472656249995 16 547 905 0 ?84 549 545 546 0 0 1 31 548 915 0 549 546 550 0 +-.02
90341796875 .0018 0 0 1 0 0 0 1 .0190341796875 16 549 913 0 ?81 551 547 548 0 0
 1 31 550 923 0 551 548 552 0 --.00565527343750005 .0018 .009875 0 1 0 0 0 1 .00
634472656249995 16 551 921 0 ?78 553 549 550 0 0 1 31 552 931 0 553 550 554 0 --
.009 .0018 .009875 0 1 0 0 0 1 .003 16 553 929 0 ?75 555 551 552 0 0 1 30 554 93
9 0 555 552 556 0 --.009 .0018 .012875 1 0 -216840434497101e-30 16 555 937 0 ?72
 557 553 554 0 0 1 31 556 947 0 557 554 558 0 -.009 .0018 .009875 0 1 0 0 0 1 .0
03 16 557 945 0 ?69 21 555 556 0 0 1 31 558 955 0 21 556 22 0 -.0056552734375000
5 .0018 .009875 0 1 0 0 0 1 .00634472656249995 16 21 953 0 ?66 9 557 558 0 0 1 3
1 22 960 0 9 558 559 0 +.0290341796875 .0018 0 0 1 0 0 0 1 .0190341796875 31 559
 1095 0 420 22 560 0 +.0110394028012929 .0018 -.00760080133138373 .3891026627674
315 0 -.921194397414191 -.921194397414191 0 -.3891026627674315 5e-4 16 420 1047
 0 ?129 561 418 559 0 0 1 31 560 1094 0 561 559 562 0 +.0115 .0018 -.009875 0 0
 1 1 0 0 5e-4 16 561 1045 0 ?93 563 420 560 0 0 1 31 562 1093 0 563 560 564 0 +.
0110394028012929 .0018 .00760080133138373 -.3891026627674315 0 -.921194397414191
 -.921194397414191 0 .3891026627674315 5e-4 16 563 1042 0 ?565 566 561 562 0 0 1
 31 564 1092 0 566 562 567 0 +.009 .0018 -.012375 1 0 0 0 0 -1 5e-4 16 566 1039
 0 ?568 569 563 564 0 0 1 31 567 1091 0 569 564 570 0 +.0115 .0018 .009875 0 0 -
1 -1 0 0 5e-4 16 569 1036 0 ?571 572 566 567 0 0 1 31 570 1090 0 572 567 573 0 +
-.009 .0018 -.012375 1 0 0 0 0 -1 5e-4 16 572 1033 0 ?574 575 569 570 0 0 1 31 5
73 1089 0 575 570 576 0 +.009 .0018 .012375 1 0 0 0 0 -1 5e-4 16 575 1030 0 ?577
 578 572 573 0 0 1 31 576 1088 0 578 573 579 0 +-.0115 .0018 -.009875 0 0 -1 -1
 0 0 5e-4 16 578 1027 0 ?580 581 575 576 0 0 1 31 579 1087 0 581 576 582 0 +-.00
9 .0018 .012375 1 0 0 0 0 -1 5e-4 16 581 1024 0 ?583 584 578 579 0 0 1 31 582 10
86 0 584 579 17 0 +-.0110394028012929 .0018 -.00760080133138373 -.38910266276743
15 -248046499797206e-30 -.921194397414191 -.921194397414191 0 .3891026627674315
 5e-4 16 584 1021 0 ?585 586 581 582 0 0 1 31 17 1085 0 586 582 6 0 +-.0115 .001
8 .009875 0 0 1 1 0 0 5e-4 16 586 1018 0 ?587 16 584 17 0 0 1 17 587 0 588 589 5
90 73 591 586 0 0 +16 16 1015 0 ?592 444 586 6 0 0 1 17 592 0 593 594 595 106 59
6 16 0 0 +15 593 989 0 592 597 0 17 594 0 593 598 592 103 108 526 0 585 -17 595
 0 593 592 598 76 81 549 0 0 -17 596 0 599 600 601 76 592 16 0 595 -15 599 987 0
 591 14 0 17 600 0 599 591 596 73 78 551 0 587 -17 601 0 599 596 591 106 111 524
 0 592 -17 591 0 599 601 600 109 587 586 0 590 -17 111 0 602 114 108 109 601 524
 0 591 +15 602 827 0 521 603 0 17 114 0 602 521 111 112 590 522 0 604 +17 108 0
 602 111 105 106 594 526 0 601 +17 105 0 602 108 102 103 605 528 0 594 +17 102 0
 602 105 99 100 606 530 0 605 +17 605 0 607 608 585 100 105 528 0 580 -15 607 99
3 0 585 609 0 17 608 0 607 610 605 82 580 578 0 611 -17 585 0 607 605 610 103 59
8 584 0 0 +17 580 0 612 606 611 100 608 578 0 0 +15 612 997 0 580 613 0 17 606 0
 612 614 580 97 102 530 0 574 -17 611 0 612 580 614 82 87 545 0 0 -17 614 0 612
 611 606 85 574 572 0 615 -17 87 0 616 617 618 85 611 545 0 481 +15 616 343 0 61
8 619 0 17 617 0 616 620 87 139 481 479 0 0 -17 618 0 616 87 620 82 167 504 0 60
8 -17 481 0 621 90 478 85 617 479 0 614 +15 621 78 0 481 622 0 17 90 0 621 144 4
81 88 615 543 0 623 +17 478 0 621 481 144 139 624 476 0 617 +17 144 0 621 478 90
 142 623 482 0 625 +17 624 0 626 493 141 142 478 476 0 0 -15 626 44 0 627 628 62
9 17 493 0 626 630 624 156 625 491 0 631 +17 141 0 626 624 632 139 620 484 0 478
 +17 632 0 626 141 627 163 162 455 0 620 -17 620 0 616 618 617 163 141 484 0 0 -
17 627 0 626 632 633 160 165 452 0 0 -17 162 0 634 459 167 160 632 455 0 635 +15
 634 472 0 459 636 0 17 459 0 634 84 162 79 635 453 0 598 +17 167 0 634 162 84 1
63 618 504 0 632 +17 635 0 637 165 81 160 459 453 0 627 -15 637 476 0 462 638 0
 17 165 0 637 462 635 145 627 452 0 639 +17 81 0 637 635 462 79 595 549 0 459 +1
7 462 0 637 81 165 76 639 460 0 596 +17 639 0 640 169 78 145 462 460 0 633 -15 6
40 480 0 508 641 0 17 169 0 640 508 639 153 633 450 0 488 +17 78 0 640 639 508 7
6 600 551 0 462 +17 633 0 626 627 488 145 169 450 0 0 -17 488 0 626 633 642 153
 643 486 0 644 +17 642 0 626 488 135 136 475 457 0 0 -17 643 0 645 646 644 136 4
88 486 0 642 -17 644 0 645 643 75 153 508 506 0 0 -15 645 322 0 646 647 0 17 75
 0 645 644 646 73 589 553 0 508 +17 508 0 640 78 169 73 644 506 0 600 +17 646 0
 645 75 643 70 138 499 0 589 -17 589 0 588 604 587 70 75 553 0 583 -15 588 991 0
 587 648 0 17 604 0 588 590 589 112 583 581 0 649 -17 583 0 650 651 649 70 604 5
81 0 0 +15 650 995 0 583 652 0 17 651 0 650 653 583 67 72 555 0 577 -17 649 0 65
0 583 58 112 521 519 0 0 -17 58 0 650 649 654 56 655 405 0 521 +17 521 0 602 399
 114 56 649 519 0 656 +17 399 0 602 99 521 170 656 397 0 404 +17 656 0 657 396 3
81 56 399 397 0 658 -15 657 1405 0 381 659 660 17 396 0 657 179 656 174 658 394
 0 0 +17 381 0 657 656 384 170 661 379 0 0 +17 658 0 662 655 176 56 396 394 0 0
 -15 662 1355 0 658 663 0 17 655 0 662 351 658 53 58 405 0 664 -17 176 0 662 658
 351 174 665 408 0 393 +17 351 0 662 176 655 159 664 349 0 0 +17 665 0 666 215 3
93 159 176 408 0 351 -17 393 0 666 665 412 174 179 391 0 396 +15 666 1351 0 393
 667 0 17 412 0 666 393 215 177 668 410 0 390 +17 179 0 657 182 396 177 393 391
 0 412 -17 182 0 657 669 179 180 390 388 0 415 -17 669 0 657 384 182 183 387 385
 0 670 -17 390 0 671 668 415 177 182 388 0 0 +17 415 0 671 390 218 180 672 413 0
 387 +15 671 1347 0 390 673 0 17 218 0 671 415 668 216 346 344 0 343 -17 672 0 6
74 675 387 216 415 413 0 0 -17 387 0 674 672 185 180 669 385 0 0 +15 674 1343 0
 387 676 0 17 185 0 674 387 675 183 221 416 0 669 +17 675 0 674 185 672 219 343
 341 0 677 -17 221 0 678 340 670 219 185 416 0 675 -15 678 1339 0 670 679 0 17 3
40 0 678 188 221 222 677 338 0 0 +17 670 0 678 221 188 183 384 382 0 0 -17 188 0
 678 670 340 186 224 418 0 661 +17 384 0 657 381 669 186 670 382 0 0 +17 224 0 6
80 337 661 222 188 418 0 681 -17 661 0 680 224 404 186 381 379 0 384 -15 680 133
5 0 661 682 0 17 404 0 680 661 337 170 61 402 0 381 +17 337 0 680 404 224 59 681
 335 0 0 +17 61 0 683 684 172 59 404 402 0 535 -15 683 1001 0 574 685 0 17 684 0
 683 686 61 94 535 533 0 568 -17 172 0 683 61 574 170 99 532 0 399 -17 535 0 687
 55 96 59 684 533 0 354 +15 687 1190 0 55 688 0 17 55 0 687 117 535 53 354 352 0
 654 -17 96 0 687 535 540 94 689 536 0 684 +17 354 0 690 681 664 59 55 352 0 337
 +15 690 1399 0 681 691 692 17 681 0 690 677 354 222 337 335 0 340 -17 664 0 690
 354 212 53 351 349 0 0 -17 212 0 690 664 346 159 215 347 0 665 +17 346 0 690 21
2 343 213 218 344 0 668 +17 215 0 666 412 665 213 212 347 0 346 -17 343 0 690 34
6 677 216 675 341 0 672 +17 668 0 671 218 390 213 412 410 0 0 -17 677 0 690 343
 681 219 340 338 0 0 -14 255 691 1395 693 ?659 694 695 4 696 +0 0 659 694 19 15
 692 1400 0 697 691 0 17 697 0 692 697 697 0 357 355 0 0 -17 357 0 698 357 357 0
 697 355 0 0 +15 698 1393 0 357 694 699 14 694 1390 700 ?691 268 698 4 701 +0 0
 691 268 19 15 699 1394 0 702 694 0 17 702 0 699 702 702 0 401 322 0 0 -17 401 0
 660 401 401 0 702 322 0 0 +15 660 1406 0 401 659 0 14 659 1401 703 ?704 691 705
 4 706 -0 0 704 691 19 81 255 1 703 3226 707 659 708 0 700 709 710 14 704 1690 7
09 ?287 659 711 4 712 -0 0 287 659 19 15 705 1404 0 360 659 657 50 255 706 1424
 0 659 696 701 0 +-.0035 0 0 1 0 0 0 0 -1 13 19 29 0 0 0 0 0 0 8 12 14 12 1834 7
13 ?714 0 715 4 716 -0 0 714 0 19 81 1 713 3228 707 12 717 0 709 718 719 14 714
 1822 718 ?720 12 721 4 722 -0 0 720 12 19 15 715 742 0 448 12 723 51 255 716 76
0 0 12 724 725 0 +.007 -.00636396103067893 .008 0 1 0 .00225 0 0 1 51 724 763 0
 726 722 716 0 -.007 -.00636396103067893 -.008 0 1 0 .00225 0 0 1 51 725 559 0 6
38 716 727 0 +-.0290341796875 -.0198510075311053 0 0 1 0 .0190341796875 0 0 1 14
 638 473 728 ?641 636 637 4 725 -0 0 641 636 19 51 727 558 0 641 725 729 0 --.00
565527343750005 -.0198510075311053 .009875 0 1 0 .00634472656249995 0 0 1 14 641
 477 730 ?731 638 640 4 727 -0 0 731 638 19 51 729 556 0 636 727 732 0 --.005655
27343750005 -.0198510075311053 -.009875 0 1 0 .00634472656249995 0 0 1 14 636 46
9 733 ?638 619 634 4 729 -0 0 638 619 19 51 732 553 0 734 729 735 0 +.0290341796
875 -.0198510075311053 0 0 1 0 .0190341796875 0 0 1 14 734 526 736 ?737 731 738
 4 732 -0 0 737 731 19 51 735 552 0 737 732 739 0 -.00565527343750005 -.01985100
75311053 -.009875 0 1 0 .00634472656249995 0 0 1 14 737 530 740 ?741 734 742 4 7
35 -0 0 741 734 19 51 739 550 0 731 735 743 0 -.00565527343750005 -.019851007531
1053 .009875 0 1 0 .00634472656249995 0 0 1 14 731 522 744 ?734 641 745 4 739 -0
 0 734 641 19 50 743 2 0 688 739 746 0 +0 .0023 0 0 1 0 0 0 1 14 688 678 747 ?62
8 603 748 4 743 +603 603 628 603 19 50 746 65 0 628 743 749 0 +0 0 0 0 1 0 0 0 1
 14 628 654 750 ?751 688 752 4 746 -0 0 751 688 19 50 749 86 0 622 746 753 0 +.0
12 .0023 -.012875 216840434497101e-30 0 1 1 0 -216840434497101e-30 14 622 79 754
 ?755 751 621 4 749 -0 0 755 751 19 50 753 88 0 751 749 756 0 +.012 .0023 .01287
5 -216840434497101e-30 0 -1 -1 0 216840434497101e-30 14 751 83 757 ?622 628 758
 4 753 -0 0 622 628 19 51 756 291 0 755 753 759 0 +.009 .0023 -.009875 0 -1 0 .0
03 0 0 -1 14 755 279 760 ?761 622 762 4 756 +0 0 761 622 19 51 759 312 0 761 756
 763 0 +.009 .0023 .009875 0 -1 0 .003 0 0 -1 14 761 300 764 ?647 755 765 4 759
 +0 0 647 755 19 51 763 333 0 647 759 766 0 +-.009 .0023 .009875 0 -1 0 .003 0 0
 -1 14 647 321 767 ?619 761 645 4 763 +0 0 619 761 19 51 766 354 0 619 763 768 0
 +-.009 .0023 -.009875 0 -1 0 .003 0 0 -1 14 619 342 769 ?636 647 616 4 766 +0 0
 636 647 19 54 768 1083 0 770 766 771 0 +.00565527343750005 .0018 -.009875 0 1 0
 .00584472656249995 5e-4 0 0 1 14 770 1008 772 ?682 773 774 4 768 +0 0 682 773 1
9 54 771 1082 0 773 768 775 0 +.0290341796875 .0018 0 0 1 0 .0195341796875 5e-4
 0 0 1 14 773 1006 776 ?770 777 778 4 771 +0 0 770 777 19 54 775 1081 0 777 771
 779 0 +.009 .0018 -.009875 0 1 0 .0025 5e-4 0 0 1 14 777 1004 780 ?773 781 782
 4 775 +0 0 773 781 19 54 779 1080 0 781 775 783 0 +.00565527343750005 .0018 .00
9875 0 1 0 .00584472656249995 5e-4 0 0 1 14 781 1002 784 ?777 685 785 4 779 +0 0
 777 685 19 51 783 1079 0 685 779 786 0 +-2683400376901625e-33 .0018 -.012375 1
 0 -216840434497101e-30 5e-4 -216840434497101e-30 0 -1 14 685 1000 787 ?781 788
 683 4 783 +0 0 781 788 19 54 786 1078 0 788 783 789 0 +.009 .0018 .009875 0 1 0
 .0025 5e-4 0 0 1 14 788 998 790 ?685 613 791 4 786 +0 0 685 613 19 54 789 1077
 0 613 786 792 0 +-.009 .0018 -.009875 0 1 0 .0025 5e-4 0 0 1 14 613 996 793 ?78
8 652 612 4 789 +0 0 788 652 19 51 792 1076 0 652 789 794 0 +2683400376901625e-3
3 .0018 .012375 -1 0 216840434497101e-30 5e-4 216840434497101e-30 0 1 14 652 994
 795 ?613 609 650 4 792 +0 0 613 609 19 54 794 1075 0 609 792 796 0 +-.005655273
43750005 .0018 -.009875 0 1 0 .00584472656249995 5e-4 0 0 1 14 609 992 797 ?652
 648 607 4 794 +0 0 652 648 19 54 796 1074 0 648 794 15 0 +-.009 .0018 .009875 0
 1 0 .0025 5e-4 0 0 1 14 648 990 798 ?609 597 588 4 796 +0 0 609 597 19 54 15 10
73 0 597 796 5 0 +-.0290341796875 .0018 0 0 1 0 .0195341796875 5e-4 0 0 1 14 597
 988 799 ?648 14 593 4 15 +0 0 648 14 19 81 1 799 3254 707 597 800 0 798 801 802
 14 14 986 801 ?597 726 599 4 5 +0 0 597 726 19 81 1 801 3255 707 14 803 0 799 8
04 805 14 726 688 804 ?14 741 806 4 724 +0 0 14 741 19 81 1 804 3256 707 726 807
 0 801 808 809 14 741 724 808 ?726 737 810 4 811 +0 0 726 737 19 15 806 1814 0 8
12 726 813 17 812 0 806 812 812 0 814 815 0 0 +15 813 691 0 816 726 0 17 816 0 8
13 816 816 0 446 444 0 0 -17 446 0 817 446 446 0 816 444 0 0 +15 817 652 0 446 6
28 0 17 814 0 818 814 814 0 812 815 0 0 -16 815 1864 0 ?812 819 0 820 0 0 1 16 8
19 1867 0 ?821 822 815 823 0 0 1 31 820 2015 0 815 824 825 0 +.007 .0021 -.008 0
 1 0 0 0 -1 .00225 31 824 2016 0 826 827 820 0 +-.007 .0023 -.008 0 1 0 0 0 1 .0
0325 31 825 2013 0 822 820 823 0 +.007 .0021 -.008 0 1 0 0 0 -1 .00325 16 822 18
61 0 ?828 829 819 825 0 0 1 31 823 2012 0 819 825 830 0 +.007 .0023 -.008 0 1 0
 0 0 -1 .00325 31 830 2011 0 831 823 832 0 +.007 .0021 .008 0 1 0 0 0 1 .00225 1
6 831 1957 0 ?833 834 835 830 0 0 1 31 832 2009 0 302 830 836 0 +.007 .0021 .008
 0 1 0 0 0 1 .00325 16 302 1954 0 ?837 299 834 832 0 0 1 31 836 2008 0 834 832 2
90 0 +.007 .0023 .008 0 1 0 0 0 1 .00325 16 834 1960 0 ?838 302 831 836 0 0 1 31
 290 1724 0 36 836 289 0 -.0015 -.00345772415770886 .0170672929223207 1 0 0 0 0
 -1 .0277 16 36 1631 0 ?31 29 315 290 0 0 1 17 838 0 839 838 838 0 840 834 0 0 +
15 839 1970 0 838 841 0 17 840 0 842 840 840 0 838 834 0 0 -15 842 1838 0 840 68
8 687 14 841 1966 843 ?844 845 846 4 847 -0 0 844 845 19 81 1 843 3266 707 841 8
48 0 849 850 851 14 844 1971 849 ?0 841 852 4 853 +0 0 0 841 19 14 845 1940 854
 ?841 855 856 4 857 -0 0 841 855 19 15 846 1969 0 858 841 839 51 847 1992 0 841
 853 859 0 +.007 .0021 .008 0 1 0 .00325 0 0 1 50 853 1994 0 844 860 847 0 +.007
 .0021 .008 0 1 0 0 0 1 50 859 1703 0 287 847 712 0 +.0015 0 0 1 0 0 0 0 -1 14 2
87 1687 850 ?861 704 283 4 859 +0 0 861 704 19 50 712 1702 0 704 859 696 0 +-.00
15 0 0 1 0 0 0 0 -1 50 696 1425 0 691 712 706 0 +.0035 0 0 1 0 0 0 0 -1 81 1 850
 3267 707 287 862 0 843 854 863 14 861 1873 864 ?865 287 866 4 860 -0 0 865 287
 19 81 1 864 3264 707 861 867 0 868 849 869 14 865 1878 868 ?870 861 818 4 871 -
0 0 870 861 19 15 866 1876 0 872 861 873 51 860 1996 0 861 871 853 0 +.007 .0021
 -.008 0 1 0 .00325 0 0 1 50 871 1998 0 865 874 860 0 +.007 .0021 -.008 0 -1 0 0
 0 -1 51 874 2000 0 870 875 871 0 +-.007 .0021 -.008 0 1 0 .00325 0 0 1 14 870 1
904 876 ?877 865 878 4 874 -0 0 877 865 19 50 875 2002 0 877 879 874 0 +-.007 .0
021 -.008 0 1 0 0 0 1 14 877 1909 880 ?855 870 881 4 875 +0 0 855 870 19 51 879
 2004 0 855 857 875 0 +-.007 .0021 .008 0 1 0 .00325 0 0 1 14 855 1935 882 ?845
 877 883 4 879 -0 0 845 877 19 50 857 2006 0 845 0 879 0 +-.007 .0021 .008 0 -1
 0 0 0 -1 81 1 882 3258 707 855 884 0 808 885 886 15 883 1938 0 887 855 888 17 8
87 0 883 887 887 0 889 835 0 0 -15 888 1939 0 890 855 0 17 890 0 888 890 890 0 8
91 892 0 0 +17 891 0 893 891 891 0 890 892 0 0 -16 892 1929 0 ?890 835 894 895 0
 0 1 16 835 1923 0 ?889 831 892 896 0 0 1 16 894 1926 0 ?897 892 898 899 0 0 1 3
1 895 2020 0 892 896 900 0 +-.007 .0023 .008 0 1 0 0 0 -1 .00325 31 896 2021 0 8
35 899 895 0 +-.007 .0021 .008 0 1 0 0 0 -1 .00325 31 900 2019 0 829 895 827 0 +
-.007 .0021 -.008 0 1 0 0 0 1 .00225 16 829 1895 0 ?901 826 822 900 0 0 1 31 827
 2017 0 898 900 824 0 +-.007 .0021 -.008 0 1 0 0 0 1 .00325 16 898 1892 0 ?902 8
94 826 827 0 0 1 17 902 0 903 902 902 0 904 898 0 0 +16 826 1898 0 ?905 898 829
 824 0 0 1 17 905 0 906 905 905 0 907 826 0 0 +15 906 1908 0 905 870 0 17 907 0
 908 907 907 0 905 826 0 0 -15 908 1856 0 907 603 893 14 603 1187 885 ?688 909 9
08 4 743 +688 688 688 909 19 15 893 1850 0 891 603 602 81 1 885 3259 707 603 910
 0 882 911 912 14 909 1515 911 ?603 913 914 4 915 +268 268 603 913 19 81 1 911 3
260 707 909 916 0 885 876 917 14 913 1533 918 ?909 919 920 4 921 -281 281 909 91
9 19 15 914 1389 0 922 909 0 51 915 1415 0 268 923 921 0 +.0035 .019852547667167
6 .015375 -1 0 0 .006 0 0 1 14 268 1386 924 ?694 281 263 4 915 +909 909 694 281
 19 81 1 924 3287 707 268 925 0 926 0 927 14 281 1378 926 ?268 928 273 4 921 -91
3 913 268 928 19 81 1 926 3286 707 281 929 0 930 924 931 14 928 1373 930 ?281 93
2 933 4 934 +919 919 281 932 19 51 921 1414 0 281 915 934 0 +.0035 .014511948457
71264 .01084973756739248 -1 0 0 .001 0 0 1 51 934 1413 0 928 921 935 0 +.0035 .0
103 .01496043445165104 -1 0 0 .00488543445165104 0 0 1 50 935 1412 0 932 934 936
 0 +.0035 0 .010075 0 0 1 1 0 0 14 932 1369 937 ?928 938 939 4 935 -940 940 928
 938 19 50 936 1411 0 938 935 941 0 +.0035 .0046 2045052071884365e-34 0 1 444576
537366166e-31 0 -444576537366166e-31 1 14 938 1365 942 ?932 943 944 4 936 +945 9
45 932 943 19 51 941 1410 0 943 936 946 0 +.0035 -.003457724157708865 .017067292
9223207 -1 0 0 .0277 0 0 1 14 943 1360 947 ?938 948 33 4 941 -949 949 938 948 19
 51 946 1409 0 948 941 811 0 -.0035 .0218900860546614 .00867810241085549 -1 0 0
 .001 0 0 1 14 948 1356 950 ?943 663 25 4 946 +720 720 943 663 19 51 811 769 0 7
41 946 722 0 --.007 -.00636396103067893 .008 0 1 0 .00225 0 0 1 51 722 766 0 714
 811 724 0 +-.007 -.00636396103067893 -.008 0 1 0 .00225 0 0 1 81 1 950 3281 707
 948 951 0 952 947 953 14 663 1352 952 ?948 667 662 4 954 +0 0 948 667 19 15 25
 1625 0 23 948 0 14 720 1621 955 ?949 714 956 4 946 +948 948 949 714 19 81 1 955
 3269 707 720 957 0 854 958 959 14 949 1607 958 ?945 720 960 4 941 -943 943 945
 720 19 15 956 1359 0 961 720 0 17 961 0 956 304 962 259 209 435 0 0 -17 304 0 9
56 191 961 256 261 301 0 922 +17 962 0 956 961 191 207 360 298 0 0 -17 209 0 960
 363 963 207 961 435 0 964 +16 435 1602 0 ?209 406 433 434 406 406 1 15 960 1605
 0 963 949 0 17 363 0 960 965 209 204 964 361 0 366 +17 963 0 960 209 965 259 24
6 299 0 961 -17 964 0 705 360 366 207 363 361 0 962 -17 360 0 705 378 964 189 96
2 298 0 966 +17 366 0 705 964 967 204 968 364 0 0 +17 967 0 705 366 372 201 369
 367 0 968 -17 968 0 969 970 206 201 366 364 0 0 -15 969 1368 0 970 945 0 17 970
 0 969 317 968 247 203 428 0 0 -17 206 0 969 968 317 204 965 432 0 363 +17 317 0
 969 206 970 244 249 315 0 965 +17 965 0 960 963 363 244 206 432 0 0 -16 432 158
4 0 ?206 433 429 430 433 433 1 17 249 0 711 252 246 247 317 315 0 971 -15 711 16
92 0 246 704 0 17 252 0 711 255 249 250 971 313 0 312 +17 246 0 711 249 261 244
 963 299 0 317 +17 971 0 972 203 973 247 252 313 0 970 -15 972 1569 0 971 940 0
 17 203 0 972 369 971 201 970 428 0 967 +17 973 0 972 971 369 250 200 424 0 0 -1
7 369 0 972 973 203 198 967 367 0 372 +17 200 0 974 975 312 198 973 424 0 369 +1
6 424 1546 0 ?200 425 282 423 425 425 1 15 974 1377 0 976 919 0 17 975 0 974 976
 200 195 372 370 0 0 -17 312 0 974 200 976 250 255 310 0 973 +17 976 0 974 312 9
75 253 197 275 0 0 -17 255 0 711 49 252 253 312 310 0 977 -17 49 0 711 258 255 4
7 977 308 0 307 +17 977 0 920 197 978 253 49 308 0 976 -15 920 1531 0 977 913 0
 17 197 0 920 375 977 195 976 275 0 979 +17 978 0 920 977 375 47 194 276 0 0 -17
 375 0 920 978 197 192 979 373 0 378 +17 194 0 914 966 307 192 978 276 0 375 +16
 276 1510 0 ?194 266 421 277 266 266 1 17 966 0 914 922 194 189 378 376 0 0 -17
 307 0 914 194 922 47 258 305 0 978 +17 922 0 914 307 966 256 191 358 0 0 -17 25
8 0 711 261 49 256 307 305 0 304 -17 261 0 711 246 258 259 304 301 0 963 -17 191
 0 956 962 304 189 922 358 0 360 +16 358 1504 0 ?191 421 355 419 421 421 1 17 37
8 0 705 979 360 192 966 376 0 0 +17 979 0 705 372 378 195 375 373 0 975 -17 372
 0 705 967 979 198 975 370 0 0 +16 275 1528 0 ?197 282 266 422 282 282 1 14 919
 1551 980 ?913 940 974 4 934 +928 928 913 940 19 81 1 980 3273 707 919 981 0 982
 918 983 14 940 1571 982 ?919 945 972 4 935 -932 932 919 945 19 81 1 982 3272 70
7 940 984 0 985 980 986 14 945 1589 985 ?940 949 969 4 936 +938 938 940 949 19 8
1 1 985 3271 707 945 987 0 958 982 988 80 255 1 707 989 990 9000 1 1 1 1 1 1 1 1
 0 FFFFTFTFFFFFFF1 81 1 987 3028 991 945 0 985 992 984 993 81 1 958 3270 707 949
 992 0 955 985 994 82 255 1 988 -82181959 81 1 992 3027 991 949 0 958 957 987 99
5 82 1 994 -80478023 80 1 991 0 996 8001 0 0 0 0 3 5 0 0 0 FFFFTFTFFFFFFF2 81 1
 957 3026 991 720 0 955 997 992 998 83 255 3 995 .1098039215686274 .109803921568
6274 .1098039215686274 81 1 997 3025 991 714 0 718 717 957 999 83 3 998 .1098039
215686274 .1098039215686274 .1098039215686274 81 1 718 3229 707 714 997 0 713 72
8 1000 81 1 717 3024 991 12 0 713 0 997 1001 83 3 999 .1098039215686274 .1098039
215686274 .1098039215686274 83 3 1001 .1098039215686274 .1098039215686274 .10980
39215686274 81 1 728 3230 707 638 1002 0 718 730 1003 82 1 1000 358809793 81 1 1
002 3043 991 638 0 728 1004 1005 1006 81 1 730 3231 707 641 1005 0 728 733 1007
 82 1 1003 337838262 81 1 1005 3044 991 641 0 730 1002 1008 1009 81 1 733 3232 7
07 636 1004 0 730 736 1010 82 1 1007 337576118 81 1 1004 3042 991 636 0 733 1011
 1002 1012 81 1 736 3233 707 734 1013 0 733 740 1014 82 1 1010 338100406 81 1 10
13 3046 991 734 0 736 1008 1015 1016 81 1 740 3234 707 737 1015 0 736 744 1017 8
2 1 1014 337051830 81 1 1015 3047 991 737 0 740 1013 1018 1019 81 1 744 3235 707
 731 1008 0 740 747 1020 82 1 1017 336789686 81 1 1008 3045 991 731 0 744 1005 1
013 1021 81 1 747 3236 707 688 1022 0 744 750 1023 82 1 1020 337313974 81 1 1022
 3034 991 688 0 747 910 1024 1025 81 1 750 3237 707 628 1024 0 747 754 1026 82 1
 1023 -547094335 81 1 1024 3035 991 628 0 750 1022 1027 1028 81 1 754 3238 707 6
22 1029 0 750 757 1030 82 1 1026 -549191499 81 1 1029 3037 991 622 0 754 1027 10
31 1032 81 1 757 3239 707 751 1027 0 754 760 1033 82 1 1030 339411126 81 1 1027
 3036 991 751 0 757 1024 1029 1034 81 1 760 3240 707 755 1031 0 757 764 1035 82
 1 1033 339673270 81 1 1031 3038 991 755 0 760 1029 1036 1037 81 1 764 3241 707
 761 1036 0 760 767 1038 82 1 1035 339148982 81 1 1036 3039 991 761 0 764 1031 1
039 1040 81 1 767 3242 707 647 1039 0 764 769 1041 82 1 1038 338886838 81 1 1039
 3040 991 647 0 767 1036 1011 1042 81 1 769 3243 707 619 1011 0 767 772 1043 82
 1 1041 338624694 81 1 1011 3041 991 619 0 769 1039 1004 1044 81 1 772 3244 707
 770 1045 0 769 776 1046 82 1 1043 338362550 81 1 1045 3061 991 770 0 772 1047 1
048 1049 81 1 776 3245 707 773 1047 0 772 780 1050 82 1 1046 -540737354 81 1 104
7 3060 991 773 0 776 1051 1045 1052 81 1 780 3246 707 777 1051 0 776 784 1053 82
 1 1050 -539164490 81 1 1051 3059 991 777 0 780 1054 1047 1055 81 1 784 3247 707
 781 1054 0 780 787 1056 82 1 1053 -537984842 81 1 1054 3058 991 781 0 784 1057
 1051 1058 81 1 787 3248 707 685 1057 0 784 790 1059 82 1 1056 -536870730 81 1 1
057 3057 991 685 0 787 1060 1054 1061 81 1 790 3249 707 788 1060 0 787 793 1062
 82 1 1059 -535756615 81 1 1060 3056 991 788 0 790 1063 1057 1064 81 1 793 3250
 707 613 1063 0 790 795 1065 82 1 1062 -534642506 81 1 1063 3055 991 613 0 793 1
066 1060 1067 81 1 795 3251 707 652 1066 0 793 797 1068 82 1 1065 -533528394 81
 1 1066 3054 991 652 0 795 1069 1063 1070 81 1 797 3252 707 609 1069 0 795 798 1
071 82 1 1068 -532414279 81 1 1069 3053 991 609 0 797 1072 1066 1073 81 1 798 32
53 707 648 1072 0 797 799 1074 82 1 1071 -531300170 81 1 1072 3052 991 648 0 798
 800 1069 1075 82 1 1074 -530186058 81 1 800 3051 991 597 0 799 803 1072 1076 83
 3 1075 .1098039215686274 .1098039215686274 .1098039215686274 81 1 803 3050 991
 14 0 801 807 800 1077 83 3 1076 .1098039215686274 .1098039215686274 .1098039215
686274 81 1 807 3049 991 726 0 804 1018 803 1078 83 3 1077 .1098039215686274 .10
98039215686274 .1098039215686274 81 1 1018 3048 991 741 0 808 1015 807 1079 83 3
 1078 .1098039215686274 .1098039215686274 .1098039215686274 81 1 808 3257 707 74
1 1018 0 804 882 1080 83 3 1079 .1098039215686274 .1098039215686274 .10980392156
86274 82 1 1080 -610074431 83 3 1073 .1098039215686274 .1098039215686274 .109803
9215686274 83 3 1070 .1098039215686274 .1098039215686274 .1098039215686274 83 3
 1067 .1098039215686274 .1098039215686274 .1098039215686274 83 3 1064 .109803921
5686274 .1098039215686274 .1098039215686274 83 3 1061 .1098039215686274 .1098039
215686274 .1098039215686274 83 3 1058 .1098039215686274 .1098039215686274 .10980
39215686274 83 3 1055 .1098039215686274 .1098039215686274 .1098039215686274 83 3
 1052 .1098039215686274 .1098039215686274 .1098039215686274 81 1 1048 3062 991 6
82 0 1081 1045 1082 1083 83 3 1049 .1098039215686274 .1098039215686274 .10980392
15686274 14 682 1332 1081 ?679 770 680 4 923 +0 0 679 770 19 81 1 1081 3275 707
 682 1048 0 918 1084 1085 81 1 1082 3063 991 679 0 1084 1048 1086 1087 83 3 1083
 .1098039215686274 .1098039215686274 .1098039215686274 14 679 1336 1084 ?676 682
 678 4 1088 +0 0 676 682 19 81 1 1084 3276 707 679 1082 0 1081 1089 1090 81 1 10
86 3064 991 676 0 1089 1082 1091 1092 83 3 1087 .1098039215686274 .1098039215686
274 .1098039215686274 14 676 1340 1089 ?673 679 674 4 1093 -0 0 673 679 19 81 1
 1089 3277 707 676 1086 0 1084 1094 1095 81 1 1091 3065 991 673 0 1094 1086 1096
 1097 83 3 1092 .1098039215686274 .1098039215686274 .1098039215686274 14 673 134
4 1094 ?667 676 671 4 1098 -0 0 667 676 19 81 1 1094 3278 707 673 1091 0 1089 10
99 1100 81 1 1096 3066 991 667 0 1099 1091 1101 1102 83 3 1097 .1098039215686274
 .1098039215686274 .1098039215686274 14 667 1348 1099 ?663 673 666 4 1103 -0 0 6
63 673 19 81 1 1099 3279 707 667 1096 0 1094 952 1104 81 1 1101 3067 991 663 0 9
52 1096 951 1105 83 3 1102 .1098039215686274 .1098039215686274 .1098039215686274
 81 1 952 3280 707 663 1101 0 1099 950 1106 81 1 951 3068 991 948 0 950 1101 110
7 1108 83 3 1105 .1098039215686274 .1098039215686274 .1098039215686274 81 1 1107
 3069 991 943 0 947 951 1109 1110 83 3 1108 .1098039215686274 .1098039215686274
 .1098039215686274 81 1 947 3282 707 943 1107 0 950 942 1111 81 1 1109 3070 991
 938 0 942 1107 1112 1113 83 3 1110 .1098039215686274 .1098039215686274 .1098039
215686274 81 1 942 3283 707 938 1109 0 947 937 1114 81 1 1112 3071 991 932 0 937
 1109 1115 1116 83 3 1113 .1098039215686274 .1098039215686274 .1098039215686274
 81 1 937 3284 707 932 1112 0 942 930 1117 81 1 1115 3072 991 928 0 930 1112 929
 1118 83 3 1116 .1098039215686274 .1098039215686274 .1098039215686274 81 1 930 3
285 707 928 1115 0 937 926 1119 81 1 929 3073 991 281 0 926 1115 925 1120 83 3 1
118 .1098039215686274 .1098039215686274 .1098039215686274 81 1 925 3074 991 268
 0 924 929 1121 1122 83 3 1120 .1098039215686274 .1098039215686274 .109803921568
6274 81 1 1121 3075 991 694 0 700 925 1123 1124 83 3 1122 .1098039215686274 .109
8039215686274 .1098039215686274 81 1 700 3225 707 694 1121 0 693 703 1125 81 1 1
123 3076 991 691 0 693 1121 708 1126 83 3 1124 .1098039215686274 .10980392156862
74 .1098039215686274 81 1 693 3224 707 691 1123 0 0 700 1127 81 1 708 3077 991 6
59 0 703 1123 1128 1129 83 3 1126 .1098039215686274 .1098039215686274 .109803921
5686274 81 1 1128 3078 991 704 0 709 708 862 1130 83 3 1129 .1098039215686274 .1
098039215686274 .1098039215686274 81 1 709 3227 707 704 1128 0 703 713 1131 81 1
 862 3079 991 287 0 850 1128 867 1132 83 3 1130 .1098039215686274 .1098039215686
274 .1098039215686274 81 1 867 3080 991 861 0 864 862 1133 1134 83 3 1132 .10980
39215686274 .1098039215686274 .1098039215686274 81 1 1133 3081 991 865 0 868 867
 1135 1136 83 3 1134 .1098039215686274 .1098039215686274 .1098039215686274 81 1
 868 3263 707 865 1133 0 880 864 1137 81 1 1135 3082 991 870 0 876 1133 1138 113
9 83 3 1136 .1098039215686274 .1098039215686274 .1098039215686274 81 1 876 3261
 707 870 1135 0 911 880 1140 81 1 1138 3083 991 877 0 880 1135 884 1141 83 3 113
9 .1098039215686274 .1098039215686274 .1098039215686274 81 1 880 3262 707 877 11
38 0 876 868 1142 81 1 884 3084 991 855 0 882 1138 1143 1144 83 3 1141 .10980392
15686274 .1098039215686274 .1098039215686274 81 1 1143 3085 991 845 0 854 884 84
8 1145 83 3 1144 .1098039215686274 .1098039215686274 .1098039215686274 81 1 854
 3268 707 845 1143 0 850 955 1146 81 1 848 3086 991 841 0 843 1143 1147 1148 83
 3 1145 .1098039215686274 .1098039215686274 .1098039215686274 81 1 1147 3087 991
 844 0 849 848 0 1149 83 3 1148 .1098039215686274 .1098039215686274 .10980392156
86274 81 1 849 3265 707 844 1147 0 864 843 1150 83 3 1149 .1098039215686274 .109
8039215686274 .1098039215686274 82 1 1150 335347905 82 1 1146 339280065 82 1 114
2 343212225 82 1 1140 345178305 82 1 1137 347144385 82 1 1131 -94568263 82 1 112
7 -110427975 82 1 1125 -110690119 82 1 1119 -112525127 82 1 1117 -112394055 82 1
 1114 -112262983 82 1 1111 -112131911 82 1 1106 -111869767 82 1 1104 -111738695
 51 1103 1420 0 667 954 1098 0 +.0035 .0103 .01496043445165104 -1 0 0 .002585434
45165104 0 0 1 50 954 1421 0 663 701 1103 0 +.0035 0 .012375 0 0 1 1 0 0 50 1098
 1419 0 673 1103 1093 0 +.0035 .00997718792225422 -.00175924742229207 0 .9848077
53012208 -.1736481776669325 0 .1736481776669325 .984807753012208 51 1093 1418 0
 676 1098 1088 0 -.0035 .0198525476671676 .015375 -1 0 0 .00675 0 0 1 50 1088 14
17 0 679 1093 923 0 +.0035 .0232720925879191 -.004103497820795615 0 .98480775301
2208 -.1736481776669305 0 .1736481776669305 .984807753012208 51 923 1416 0 682 1
088 915 0 +.0035 -.00345772415770886 .0170672929223207 -1 0 0 .03 0 0 1 51 701 1
423 0 694 706 954 0 -.0035 .0198525476671676 .015375 -1 0 0 .003 0 0 1 82 1 1100
 -111411015 82 1 1095 -113246023 82 1 1090 -113377095 81 1 918 3274 707 913 1151
 0 980 1081 1152 82 1 1085 -113180487 81 1 1151 3031 991 913 0 918 981 916 1153
 82 1 1152 -87424839 81 1 981 3030 991 919 0 980 984 1151 1154 81 1 916 3032 991
 909 0 911 1151 910 1155 83 3 1153 .1098039215686274 .1098039215686274 .10980392
15686274 81 1 910 3033 991 603 0 885 916 1022 1156 83 3 1155 .1098039215686274 .
1098039215686274 .1098039215686274 83 3 1156 .1098039215686274 .1098039215686274
 .1098039215686274 81 1 984 3029 991 940 0 982 987 981 1157 83 3 1154 .109803921
5686274 .1098039215686274 .1098039215686274 83 3 1157 .1098039215686274 .1098039
215686274 .1098039215686274 83 3 1044 .1098039215686274 .1098039215686274 .10980
39215686274 83 3 1042 .1098039215686274 .1098039215686274 .1098039215686274 83 3
 1040 .1098039215686274 .1098039215686274 .1098039215686274 83 3 1037 .109803921
5686274 .1098039215686274 .1098039215686274 83 3 1034 .1098039215686274 .1098039
215686274 .1098039215686274 83 3 1032 .1098039215686274 .1098039215686274 .10980
39215686274 83 3 1028 .1098039215686274 .1098039215686274 .1098039215686274 83 3
 1025 .1098039215686274 .1098039215686274 .1098039215686274 83 3 1021 .109803921
5686274 .1098039215686274 .1098039215686274 83 3 1019 .1098039215686274 .1098039
215686274 .1098039215686274 83 3 1016 .1098039215686274 .1098039215686274 .10980
39215686274 83 3 1012 .1098039215686274 .1098039215686274 .1098039215686274 83 3
 1009 .1098039215686274 .1098039215686274 .1098039215686274 83 3 1006 .109803921
5686274 .1098039215686274 .1098039215686274 79 255 15 996 SDL/TYSA_COLOUR83 3 99
3 .1098039215686274 .1098039215686274 .1098039215686274 79 14 990 SWEntUnchanged
82 1 986 -83885895 82 1 983 -85720903 16 428 1566 0 ?203 429 425 426 429 429 1 8
2 1 959 -79298375 82 1 953 -112000839 15 33 1364 0 30 943 0 17 30 0 33 31 1158 1
0 26 406 0 35 +17 1158 0 33 30 34 173 242 321 0 1159 -17 26 0 25 320 23 173 30 4
06 0 1158 -17 35 0 283 28 297 10 31 36 0 0 -17 297 0 283 35 1160 24 38 295 0 0 +
17 1160 0 283 297 284 32 43 293 0 0 -17 38 0 944 239 37 32 297 295 0 431 -15 944
 1593 0 38 938 0 17 239 0 944 326 38 237 431 429 0 1161 -17 37 0 944 38 326 24 3
4 433 0 297 +17 431 0 939 43 1161 32 239 429 0 1160 +15 939 1372 0 431 932 0 17
 43 0 939 1162 431 39 1160 293 0 427 +17 1161 0 939 431 1162 237 236 327 0 1163
 -17 1162 0 939 1161 43 234 427 425 0 331 -17 236 0 695 1164 1163 234 1161 327 0
 1162 +17 1163 0 695 236 242 237 326 324 0 0 -15 695 1398 0 1159 691 690 17 242
 0 695 1163 1159 240 1158 321 0 34 +17 326 0 944 37 239 240 1163 324 0 0 +17 115
9 0 695 242 271 173 320 318 0 0 -17 34 0 33 1158 31 240 37 433 0 326 -17 271 0 6
95 1159 230 225 264 272 0 0 -17 320 0 25 27 26 225 1159 318 0 271 +17 27 0 25 23
 320 50 227 421 0 28 +17 227 0 263 264 52 225 27 421 0 320 -17 230 0 695 271 116
4 228 274 332 0 265 +17 1164 0 695 230 236 231 331 329 0 0 -17 274 0 273 278 265
 231 230 332 0 1164 -17 331 0 933 427 233 234 1164 329 0 0 +15 933 1556 0 46 928
 0 17 427 0 933 46 331 39 1162 425 0 284 +17 233 0 933 331 46 231 278 282 0 274
 -17 46 0 933 233 427 44 284 285 0 278 -17 284 0 283 1160 279 39 46 285 0 0 +82
 1 931 -112656199 82 1 927 -112787271 82 1 917 -89128775 82 1 912 -104267583 15
 903 1912 0 902 877 0 17 904 0 878 904 904 0 902 898 0 0 -15 878 1907 0 904 870
 906 17 901 0 1165 901 901 0 1166 829 0 0 +15 1165 1820 0 901 714 0 17 1166 0 88
1 1166 1166 0 901 829 0 0 -15 881 1911 0 1166 877 903 31 899 2023 0 894 0 896 0
 +-.007 .0021 .008 0 1 0 0 0 -1 .00225 17 897 0 810 897 897 0 1167 894 0 0 +15 8
10 1826 0 897 741 1168 17 1167 0 856 1167 1167 0 897 894 0 0 -15 856 1942 0 1167
 845 1169 15 1169 1943 0 889 845 0 17 889 0 1169 889 889 0 887 835 0 0 +15 1168
 727 0 1170 741 0 17 1170 0 1168 1170 1170 0 439 437 0 0 -17 439 0 629 439 439 0
 1170 437 0 0 +15 629 640 0 439 628 817 82 1 886 341246145 17 872 0 866 872 872
 0 828 822 0 0 -15 873 1877 0 821 861 0 17 821 0 873 821 821 0 1171 819 0 0 +17
 1171 0 748 1171 1171 0 821 819 0 0 -15 748 1844 0 1171 688 842 17 828 0 1172 82
8 828 0 872 822 0 0 +15 1172 1881 0 828 865 0 15 818 1880 0 814 865 1172 82 1 86
9 349110465 82 1 863 -94437191 17 858 0 846 858 858 0 837 302 0 0 -17 837 0 1173
 837 837 0 858 302 0 0 +15 1173 1974 0 837 844 0 15 852 1973 0 1174 844 1173 17
 1174 0 852 1174 1174 0 833 831 0 0 -17 833 0 723 833 833 0 1174 831 0 0 +15 723
 1832 0 833 12 0 82 1 851 337313985 82 1 809 -600112959 82 1 805 -527957834 82 1
 802 -529071946 15 791 999 0 577 788 0 17 577 0 791 1175 1176 67 653 575 0 0 +17
 1175 0 791 1177 577 64 69 557 0 571 -17 1176 0 791 577 1177 115 120 516 0 0 -17
 653 0 650 654 651 115 577 575 0 1176 -17 654 0 650 58 653 53 117 518 0 655 -17
 117 0 687 120 55 115 654 518 0 653 +16 518 1182 0 ?117 519 516 517 519 519 1 17
 120 0 687 126 117 118 1176 516 0 1177 +17 126 0 687 123 120 124 1178 514 0 1179
 +17 1177 0 791 1176 1175 118 571 569 0 1178 -17 571 0 785 1180 1178 64 1177 569
 0 0 +17 1178 0 785 571 1179 118 126 514 0 0 -15 785 1003 0 571 781 0 17 1179 0
 785 1178 1180 124 565 563 0 1181 -17 1180 0 785 1179 571 62 66 21 0 565 -17 565
 0 778 1182 1181 62 1179 563 0 0 +17 1181 0 778 565 1183 124 123 512 0 0 -15 778
 1007 0 565 773 0 17 1183 0 778 1181 1182 121 129 420 0 0 -17 123 0 687 540 126
 121 1181 512 0 1184 +17 540 0 687 96 123 91 1184 538 0 0 +17 1184 0 774 129 93
 121 540 538 0 1183 -15 774 1009 0 93 770 0 17 129 0 774 1185 1184 127 1183 420
 0 1182 +17 93 0 774 1184 1185 91 1186 561 0 689 +17 1185 0 774 93 129 130 511 5
09 0 0 -17 1186 0 782 1187 689 130 93 561 0 1185 -17 689 0 782 1186 568 91 96 53
6 0 540 -15 782 1005 0 568 777 0 17 568 0 782 689 1187 94 686 566 0 0 +17 1187 0
 782 568 1186 88 132 541 0 0 -17 686 0 683 615 684 88 568 566 0 1187 -17 615 0 6
83 574 686 85 90 543 0 0 -17 574 0 683 172 615 97 614 572 0 0 +17 132 0 762 631
 623 130 1187 541 0 498 +15 762 280 0 623 755 0 17 631 0 762 625 132 156 498 496
 0 0 -17 623 0 762 132 625 88 144 482 0 686 -17 498 0 742 511 158 130 631 496 0
 1186 +15 742 533 0 498 737 0 17 511 0 742 1188 498 127 1185 509 0 473 +17 158 0
 742 498 1188 156 630 464 0 493 +17 1188 0 742 158 511 149 473 449 0 630 -17 630
 0 626 1189 493 149 158 464 0 0 -17 1189 0 626 1190 630 146 152 466 0 0 -17 1190
 0 626 135 1189 150 148 463 0 1191 -17 152 0 738 473 1192 149 1189 466 0 1188 +1
5 738 529 0 473 734 0 17 473 0 738 20 152 127 1188 449 0 0 +17 1192 0 738 152 20
 146 471 467 0 1189 -17 20 0 738 1192 473 62 1182 9 0 471 +17 471 0 745 66 148 6
2 1192 467 0 1180 +15 745 525 0 471 731 0 17 66 0 745 155 471 64 1180 21 0 1193
 +17 148 0 745 471 155 146 1190 463 0 1192 +17 155 0 745 148 66 150 1193 494 0 1
190 +17 1193 0 765 69 1191 64 155 494 0 1175 -15 765 301 0 1193 761 0 17 69 0 76
5 1194 1193 67 1175 557 0 503 +17 1191 0 765 1193 1194 150 135 489 0 0 -17 1194
 0 765 1191 69 133 503 501 0 0 -17 135 0 626 642 1190 133 1191 489 0 475 +17 475
 0 758 503 138 133 642 457 0 1194 +15 758 82 0 503 751 0 17 503 0 758 72 475 67
 1194 501 0 651 +17 138 0 758 475 72 136 646 499 0 643 +17 72 0 758 138 503 70 6
51 555 0 646 +17 1182 0 778 1183 565 127 20 9 0 511 -17 625 0 762 623 631 142 49
3 491 0 624 -15 752 645 0 1195 628 1196 17 1195 0 752 1195 1195 0 443 441 0 0 -1
5 1196 633 0 1197 628 626 17 1197 0 1196 1197 1197 0 448 440 0 0 -17 448 0 715 4
48 448 0 1197 440 0 0 +17 443 0 721 443 443 0 1195 441 0 0 +15 721 706 0 443 714
 1165 82 1 719 359858369 82 1 710 -110231367 17 99 0 602 102 399 97 172 532 0 60
6 +16 532 1176 0 ?99 533 530 531 533 533 1 17 590 0 588 587 604 109 114 522 0 0
 -17 84 0 634 167 459 82 610 547 0 618 +17 610 0 607 585 608 79 84 547 0 0 -17 5
98 0 593 595 594 79 585 584 0 610 -19 13 95 0 1 0 8 4 S0 74 4 CI16 index_map_off
set0 0 1 dCCZ20 11 2 0 0 924 1147 0 0 0 0 0 0 0 0 0 0 0 0 0 0 0 0 0 0 1 0 
